<?xml version="1.0" encoding="UTF-8"?>
<!DOCTYPE svg PUBLIC "-//W3C//DTD SVG 1.1//EN" "http://www.w3.org/Graphics/SVG/1.1/DTD/svg11.dtd">
<svg xmlns="http://www.w3.org/2000/svg" version="1.1" width="206px" height="231px" style="shape-rendering:geometricPrecision; text-rendering:geometricPrecision; image-rendering:optimizeQuality; fill-rule:evenodd; clip-rule:evenodd" xmlns:xlink="http://www.w3.org/1999/xlink">
<g><path style="opacity:0.731" fill="#0201fe" d="M 205.5,95.5 C 205.5,110.167 205.5,124.833 205.5,139.5C 195.598,185.727 168.265,216.06 123.5,230.5C 109.833,230.5 96.1667,230.5 82.5,230.5C 81.791,229.596 80.791,229.263 79.5,229.5C 79.5,227.833 79.5,226.167 79.5,224.5C 83.8549,212.126 89.0215,200.126 95,188.5C 111.249,158.999 127.749,129.666 144.5,100.5C 142.429,96.9206 139.762,93.754 136.5,91C 134.167,90.3333 131.833,90.3333 129.5,91C 112.735,100.77 96.2354,110.937 80,121.5C 79.6717,118.793 80.005,116.126 81,113.5C 89.2865,93.9649 97.9531,74.6316 107,55.5C 112.662,41.3462 117.829,27.0129 122.5,12.5C 118.97,7.83105 114.47,6.49772 109,8.5C 105.621,20.9708 101.621,33.3041 97,45.5C 87.4974,67.1667 77.4974,88.5 67,109.5C 64.831,116.845 62.6643,124.178 60.5,131.5C 60.6082,132.442 60.9415,133.275 61.5,134C 65.3318,136.75 69.3318,139.25 73.5,141.5C 84.0282,133.805 94.6949,126.305 105.5,119C 111.167,115.833 116.833,112.667 122.5,109.5C 122.833,109.833 123.167,110.167 123.5,110.5C 108.254,140.73 91.4208,170.063 73,198.5C 70.2923,205.249 67.1257,211.582 63.5,217.5C 62.5116,218.795 61.5116,220.128 60.5,221.5C 36.4015,209.566 18.9015,191.233 8,166.5C 4.21514,157.323 1.38181,147.99 -0.5,138.5C -0.5,124.167 -0.5,109.833 -0.5,95.5C 7.95727,52.8784 32.2906,23.3784 72.5,7C 128.407,-5.30226 169.573,14.1977 196,65.5C 200.115,75.3238 203.282,85.3238 205.5,95.5 Z"/></g>
<g><path style="opacity:0.998" fill="#d6d5e5" d="M 79.5,224.5 C 75.0361,224.402 70.7028,223.569 66.5,222C 64.8588,220.871 63.8588,219.371 63.5,217.5C 67.1257,211.582 70.2923,205.249 73,198.5C 91.4208,170.063 108.254,140.73 123.5,110.5C 123.167,110.167 122.833,109.833 122.5,109.5C 116.833,112.667 111.167,115.833 105.5,119C 94.6949,126.305 84.0282,133.805 73.5,141.5C 69.3318,139.25 65.3318,136.75 61.5,134C 60.9415,133.275 60.6082,132.442 60.5,131.5C 62.6643,124.178 64.831,116.845 67,109.5C 77.4974,88.5 87.4974,67.1667 97,45.5C 101.621,33.3041 105.621,20.9708 109,8.5C 114.47,6.49772 118.97,7.83105 122.5,12.5C 117.829,27.0129 112.662,41.3462 107,55.5C 97.9531,74.6316 89.2865,93.9649 81,113.5C 80.005,116.126 79.6717,118.793 80,121.5C 96.2354,110.937 112.735,100.77 129.5,91C 131.833,90.3333 134.167,90.3333 136.5,91C 139.762,93.754 142.429,96.9206 144.5,100.5C 127.749,129.666 111.249,158.999 95,188.5C 89.0215,200.126 83.8549,212.126 79.5,224.5 Z"/></g>
<g><path style="opacity:0.23" fill="#3b3aac" d="M 63.5,217.5 C 63.8588,219.371 64.8588,220.871 66.5,222C 70.7028,223.569 75.0361,224.402 79.5,224.5C 79.5,226.167 79.5,227.833 79.5,229.5C 79.5,229.833 79.5,230.167 79.5,230.5C 78.5,230.5 77.5,230.5 76.5,230.5C 71.6878,228.271 66.6878,226.105 61.5,224C 60.7476,223.329 60.4142,222.496 60.5,221.5C 61.5116,220.128 62.5116,218.795 63.5,217.5 Z"/></g>
</svg>
